<svg xmlns="http://www.w3.org/2000/svg" viewBox="0 0 880 380" font-family="Helvetica, Arial, sans-serif">
<rect width="880" height="380" fill="#fcfcfb"/>
<text x="30" y="195.0" font-size="12" fill="#52514e" transform="rotate(-90 30 195.0)" text-anchor="middle">overhead vs baseline (%)</text>
<line x1="90" y1="54" x2="116" y2="54" stroke="#2a78d6" stroke-width="2"/><circle cx="103.0" cy="54.0" r="4" fill="#2a78d6" stroke="#fcfcfb" stroke-width="2"/><text x="122" y="58" font-size="12" fill="#0b0b0b">full architecture</text><line x1="280" y1="54" x2="306" y2="54" stroke="#1baf7a" stroke-width="2" stroke-dasharray="6,4"/><rect x="289.5" y="50.5" width="7" height="7" fill="#1baf7a" stroke="#fcfcfb" stroke-width="2"/><text x="312" y="58" font-size="12" fill="#0b0b0b">trace only</text><line x1="470" y1="54" x2="496" y2="54" stroke="#eda100" stroke-width="2" stroke-dasharray="2,3"/><polygon points="483.0,49.5 478.5,57.5 487.5,57.5" fill="#eda100" stroke="#fcfcfb" stroke-width="2"/><text x="502" y="58" font-size="12" fill="#0b0b0b">provenance only</text>
<text x="90" y="32" font-size="13" font-weight="600" fill="#0b0b0b">Naive recorder (eager detail strings)</text>
<line x1="90" y1="298.7" x2="430" y2="298.7" stroke="#c9c8c3" stroke-width="1"/>
<text x="82" y="302.7" font-size="11" text-anchor="end" fill="#52514e">0</text>
<line x1="90" y1="245.5" x2="430" y2="245.5" stroke="#e8e7e3" stroke-width="1"/>
<text x="82" y="249.5" font-size="11" text-anchor="end" fill="#52514e">50</text>
<line x1="90" y1="192.3" x2="430" y2="192.3" stroke="#e8e7e3" stroke-width="1"/>
<text x="82" y="196.3" font-size="11" text-anchor="end" fill="#52514e">100</text>
<line x1="90" y1="139.1" x2="430" y2="139.1" stroke="#e8e7e3" stroke-width="1"/>
<text x="82" y="143.1" font-size="11" text-anchor="end" fill="#52514e">150</text>
<line x1="90" y1="86.0" x2="430" y2="86.0" stroke="#e8e7e3" stroke-width="1"/>
<text x="82" y="90.0" font-size="11" text-anchor="end" fill="#52514e">200</text>
<line x1="103.0" y1="320" x2="103.0" y2="324" stroke="#c9c8c3"/>
<text x="103.0" y="338" font-size="11" text-anchor="middle" fill="#52514e">100</text>
<line x1="236.6" y1="320" x2="236.6" y2="324" stroke="#c9c8c3"/>
<text x="236.6" y="338" font-size="11" text-anchor="middle" fill="#52514e">1k</text>
<line x1="330.0" y1="320" x2="330.0" y2="324" stroke="#c9c8c3"/>
<text x="330.0" y="338" font-size="11" text-anchor="middle" fill="#52514e">5k</text>
<line x1="410.5" y1="320" x2="410.5" y2="324" stroke="#c9c8c3"/>
<text x="410.5" y="338" font-size="11" text-anchor="middle" fill="#52514e">20k</text>
<line x1="103.0" y1="247.1" x2="103.0" y2="228.8" stroke="#2a78d6" stroke-width="1" opacity="0.55"/>
<line x1="100.0" y1="247.1" x2="106.0" y2="247.1" stroke="#2a78d6" stroke-width="1" opacity="0.55"/>
<line x1="100.0" y1="228.8" x2="106.0" y2="228.8" stroke="#2a78d6" stroke-width="1" opacity="0.55"/>
<line x1="236.6" y1="198.1" x2="236.6" y2="154.7" stroke="#2a78d6" stroke-width="1" opacity="0.55"/>
<line x1="233.6" y1="198.1" x2="239.6" y2="198.1" stroke="#2a78d6" stroke-width="1" opacity="0.55"/>
<line x1="233.6" y1="154.7" x2="239.6" y2="154.7" stroke="#2a78d6" stroke-width="1" opacity="0.55"/>
<line x1="330.0" y1="182.0" x2="330.0" y2="122.6" stroke="#2a78d6" stroke-width="1" opacity="0.55"/>
<line x1="327.0" y1="182.0" x2="333.0" y2="182.0" stroke="#2a78d6" stroke-width="1" opacity="0.55"/>
<line x1="327.0" y1="122.6" x2="333.0" y2="122.6" stroke="#2a78d6" stroke-width="1" opacity="0.55"/>
<line x1="410.5" y1="145.9" x2="410.5" y2="82.2" stroke="#2a78d6" stroke-width="1" opacity="0.55"/>
<line x1="407.5" y1="145.9" x2="413.5" y2="145.9" stroke="#2a78d6" stroke-width="1" opacity="0.55"/>
<line x1="407.5" y1="82.2" x2="413.5" y2="82.2" stroke="#2a78d6" stroke-width="1" opacity="0.55"/>
<line x1="103.0" y1="279.3" x2="103.0" y2="267.7" stroke="#1baf7a" stroke-width="1" opacity="0.55"/>
<line x1="100.0" y1="279.3" x2="106.0" y2="279.3" stroke="#1baf7a" stroke-width="1" opacity="0.55"/>
<line x1="100.0" y1="267.7" x2="106.0" y2="267.7" stroke="#1baf7a" stroke-width="1" opacity="0.55"/>
<line x1="236.6" y1="234.1" x2="236.6" y2="199.6" stroke="#1baf7a" stroke-width="1" opacity="0.55"/>
<line x1="233.6" y1="234.1" x2="239.6" y2="234.1" stroke="#1baf7a" stroke-width="1" opacity="0.55"/>
<line x1="233.6" y1="199.6" x2="239.6" y2="199.6" stroke="#1baf7a" stroke-width="1" opacity="0.55"/>
<line x1="330.0" y1="123.6" x2="330.0" y2="107.8" stroke="#1baf7a" stroke-width="1" opacity="0.55"/>
<line x1="327.0" y1="123.6" x2="333.0" y2="123.6" stroke="#1baf7a" stroke-width="1" opacity="0.55"/>
<line x1="327.0" y1="107.8" x2="333.0" y2="107.8" stroke="#1baf7a" stroke-width="1" opacity="0.55"/>
<line x1="410.5" y1="160.5" x2="410.5" y2="119.7" stroke="#1baf7a" stroke-width="1" opacity="0.55"/>
<line x1="407.5" y1="160.5" x2="413.5" y2="160.5" stroke="#1baf7a" stroke-width="1" opacity="0.55"/>
<line x1="407.5" y1="119.7" x2="413.5" y2="119.7" stroke="#1baf7a" stroke-width="1" opacity="0.55"/>
<line x1="103.0" y1="287.7" x2="103.0" y2="276.4" stroke="#eda100" stroke-width="1" opacity="0.55"/>
<line x1="100.0" y1="287.7" x2="106.0" y2="287.7" stroke="#eda100" stroke-width="1" opacity="0.55"/>
<line x1="100.0" y1="276.4" x2="106.0" y2="276.4" stroke="#eda100" stroke-width="1" opacity="0.55"/>
<line x1="236.6" y1="289.1" x2="236.6" y2="264.6" stroke="#eda100" stroke-width="1" opacity="0.55"/>
<line x1="233.6" y1="289.1" x2="239.6" y2="289.1" stroke="#eda100" stroke-width="1" opacity="0.55"/>
<line x1="233.6" y1="264.6" x2="239.6" y2="264.6" stroke="#eda100" stroke-width="1" opacity="0.55"/>
<line x1="330.0" y1="254.9" x2="330.0" y2="239.2" stroke="#eda100" stroke-width="1" opacity="0.55"/>
<line x1="327.0" y1="254.9" x2="333.0" y2="254.9" stroke="#eda100" stroke-width="1" opacity="0.55"/>
<line x1="327.0" y1="239.2" x2="333.0" y2="239.2" stroke="#eda100" stroke-width="1" opacity="0.55"/>
<line x1="410.5" y1="305.3" x2="410.5" y2="297.0" stroke="#eda100" stroke-width="1" opacity="0.55"/>
<line x1="407.5" y1="305.3" x2="413.5" y2="305.3" stroke="#eda100" stroke-width="1" opacity="0.55"/>
<line x1="407.5" y1="297.0" x2="413.5" y2="297.0" stroke="#eda100" stroke-width="1" opacity="0.55"/>
<polyline points="103.0,237.6 236.6,174.5 330.0,126.8 410.5,131.7" fill="none" stroke="#2a78d6" stroke-width="2"/>
<circle cx="103.0" cy="237.6" r="4" fill="#2a78d6" stroke="#fcfcfb" stroke-width="2"/>
<circle cx="236.6" cy="174.5" r="4" fill="#2a78d6" stroke="#fcfcfb" stroke-width="2"/>
<circle cx="330.0" cy="126.8" r="4" fill="#2a78d6" stroke="#fcfcfb" stroke-width="2"/>
<circle cx="410.5" cy="131.7" r="4" fill="#2a78d6" stroke="#fcfcfb" stroke-width="2"/>
<polyline points="103.0,272.7 236.6,213.7 330.0,112.6 410.5,147.0" fill="none" stroke="#1baf7a" stroke-width="2" stroke-dasharray="6,4"/>
<rect x="99.5" y="269.2" width="7" height="7" fill="#1baf7a" stroke="#fcfcfb" stroke-width="2"/>
<rect x="233.1" y="210.2" width="7" height="7" fill="#1baf7a" stroke="#fcfcfb" stroke-width="2"/>
<rect x="326.5" y="109.1" width="7" height="7" fill="#1baf7a" stroke="#fcfcfb" stroke-width="2"/>
<rect x="407.0" y="143.5" width="7" height="7" fill="#1baf7a" stroke="#fcfcfb" stroke-width="2"/>
<polyline points="103.0,283.8 236.6,275.4 330.0,251.5 410.5,300.0" fill="none" stroke="#eda100" stroke-width="2" stroke-dasharray="2,3"/>
<polygon points="103.0,279.3 98.5,287.3 107.5,287.3" fill="#eda100" stroke="#fcfcfb" stroke-width="2"/>
<polygon points="236.6,270.9 232.1,278.9 241.1,278.9" fill="#eda100" stroke="#fcfcfb" stroke-width="2"/>
<polygon points="330.0,247.0 325.5,255.0 334.5,255.0" fill="#eda100" stroke="#fcfcfb" stroke-width="2"/>
<polygon points="410.5,295.5 406.0,303.5 415.0,303.5" fill="#eda100" stroke="#fcfcfb" stroke-width="2"/>
<text x="500" y="32" font-size="13" font-weight="600" fill="#0b0b0b">Lazy recorder (D14)</text>
<line x1="500" y1="298.7" x2="840" y2="298.7" stroke="#c9c8c3" stroke-width="1"/>
<line x1="500" y1="245.5" x2="840" y2="245.5" stroke="#e8e7e3" stroke-width="1"/>
<line x1="500" y1="192.3" x2="840" y2="192.3" stroke="#e8e7e3" stroke-width="1"/>
<line x1="500" y1="139.1" x2="840" y2="139.1" stroke="#e8e7e3" stroke-width="1"/>
<line x1="500" y1="86.0" x2="840" y2="86.0" stroke="#e8e7e3" stroke-width="1"/>
<line x1="513.0" y1="320" x2="513.0" y2="324" stroke="#c9c8c3"/>
<text x="513.0" y="338" font-size="11" text-anchor="middle" fill="#52514e">100</text>
<line x1="646.6" y1="320" x2="646.6" y2="324" stroke="#c9c8c3"/>
<text x="646.6" y="338" font-size="11" text-anchor="middle" fill="#52514e">1k</text>
<line x1="740.0" y1="320" x2="740.0" y2="324" stroke="#c9c8c3"/>
<text x="740.0" y="338" font-size="11" text-anchor="middle" fill="#52514e">5k</text>
<line x1="820.5" y1="320" x2="820.5" y2="324" stroke="#c9c8c3"/>
<text x="820.5" y="338" font-size="11" text-anchor="middle" fill="#52514e">20k</text>
<line x1="513.0" y1="296.3" x2="513.0" y2="287.0" stroke="#2a78d6" stroke-width="1" opacity="0.55"/>
<line x1="510.0" y1="296.3" x2="516.0" y2="296.3" stroke="#2a78d6" stroke-width="1" opacity="0.55"/>
<line x1="510.0" y1="287.0" x2="516.0" y2="287.0" stroke="#2a78d6" stroke-width="1" opacity="0.55"/>
<line x1="646.6" y1="287.6" x2="646.6" y2="280.0" stroke="#2a78d6" stroke-width="1" opacity="0.55"/>
<line x1="643.6" y1="287.6" x2="649.6" y2="287.6" stroke="#2a78d6" stroke-width="1" opacity="0.55"/>
<line x1="643.6" y1="280.0" x2="649.6" y2="280.0" stroke="#2a78d6" stroke-width="1" opacity="0.55"/>
<line x1="740.0" y1="284.0" x2="740.0" y2="277.5" stroke="#2a78d6" stroke-width="1" opacity="0.55"/>
<line x1="737.0" y1="284.0" x2="743.0" y2="284.0" stroke="#2a78d6" stroke-width="1" opacity="0.55"/>
<line x1="737.0" y1="277.5" x2="743.0" y2="277.5" stroke="#2a78d6" stroke-width="1" opacity="0.55"/>
<line x1="820.5" y1="286.2" x2="820.5" y2="268.6" stroke="#2a78d6" stroke-width="1" opacity="0.55"/>
<line x1="817.5" y1="286.2" x2="823.5" y2="286.2" stroke="#2a78d6" stroke-width="1" opacity="0.55"/>
<line x1="817.5" y1="268.6" x2="823.5" y2="268.6" stroke="#2a78d6" stroke-width="1" opacity="0.55"/>
<line x1="513.0" y1="302.8" x2="513.0" y2="294.5" stroke="#1baf7a" stroke-width="1" opacity="0.55"/>
<line x1="510.0" y1="302.8" x2="516.0" y2="302.8" stroke="#1baf7a" stroke-width="1" opacity="0.55"/>
<line x1="510.0" y1="294.5" x2="516.0" y2="294.5" stroke="#1baf7a" stroke-width="1" opacity="0.55"/>
<line x1="646.6" y1="301.0" x2="646.6" y2="293.7" stroke="#1baf7a" stroke-width="1" opacity="0.55"/>
<line x1="643.6" y1="301.0" x2="649.6" y2="301.0" stroke="#1baf7a" stroke-width="1" opacity="0.55"/>
<line x1="643.6" y1="293.7" x2="649.6" y2="293.7" stroke="#1baf7a" stroke-width="1" opacity="0.55"/>
<line x1="740.0" y1="301.4" x2="740.0" y2="295.4" stroke="#1baf7a" stroke-width="1" opacity="0.55"/>
<line x1="737.0" y1="301.4" x2="743.0" y2="301.4" stroke="#1baf7a" stroke-width="1" opacity="0.55"/>
<line x1="737.0" y1="295.4" x2="743.0" y2="295.4" stroke="#1baf7a" stroke-width="1" opacity="0.55"/>
<line x1="820.5" y1="304.6" x2="820.5" y2="289.9" stroke="#1baf7a" stroke-width="1" opacity="0.55"/>
<line x1="817.5" y1="304.6" x2="823.5" y2="304.6" stroke="#1baf7a" stroke-width="1" opacity="0.55"/>
<line x1="817.5" y1="289.9" x2="823.5" y2="289.9" stroke="#1baf7a" stroke-width="1" opacity="0.55"/>
<line x1="513.0" y1="294.3" x2="513.0" y2="282.3" stroke="#eda100" stroke-width="1" opacity="0.55"/>
<line x1="510.0" y1="294.3" x2="516.0" y2="294.3" stroke="#eda100" stroke-width="1" opacity="0.55"/>
<line x1="510.0" y1="282.3" x2="516.0" y2="282.3" stroke="#eda100" stroke-width="1" opacity="0.55"/>
<line x1="646.6" y1="287.9" x2="646.6" y2="280.0" stroke="#eda100" stroke-width="1" opacity="0.55"/>
<line x1="643.6" y1="287.9" x2="649.6" y2="287.9" stroke="#eda100" stroke-width="1" opacity="0.55"/>
<line x1="643.6" y1="280.0" x2="649.6" y2="280.0" stroke="#eda100" stroke-width="1" opacity="0.55"/>
<line x1="740.0" y1="283.2" x2="740.0" y2="277.4" stroke="#eda100" stroke-width="1" opacity="0.55"/>
<line x1="737.0" y1="283.2" x2="743.0" y2="283.2" stroke="#eda100" stroke-width="1" opacity="0.55"/>
<line x1="737.0" y1="277.4" x2="743.0" y2="277.4" stroke="#eda100" stroke-width="1" opacity="0.55"/>
<line x1="820.5" y1="289.6" x2="820.5" y2="272.7" stroke="#eda100" stroke-width="1" opacity="0.55"/>
<line x1="817.5" y1="289.6" x2="823.5" y2="289.6" stroke="#eda100" stroke-width="1" opacity="0.55"/>
<line x1="817.5" y1="272.7" x2="823.5" y2="272.7" stroke="#eda100" stroke-width="1" opacity="0.55"/>
<polyline points="513.0,291.5 646.6,282.9 740.0,280.2 820.5,278.5" fill="none" stroke="#2a78d6" stroke-width="2"/>
<circle cx="513.0" cy="291.5" r="4" fill="#2a78d6" stroke="#fcfcfb" stroke-width="2"/>
<circle cx="646.6" cy="282.9" r="4" fill="#2a78d6" stroke="#fcfcfb" stroke-width="2"/>
<circle cx="740.0" cy="280.2" r="4" fill="#2a78d6" stroke="#fcfcfb" stroke-width="2"/>
<circle cx="820.5" cy="278.5" r="4" fill="#2a78d6" stroke="#fcfcfb" stroke-width="2"/>
<polyline points="513.0,297.3 646.6,297.0 740.0,297.6 820.5,296.2" fill="none" stroke="#1baf7a" stroke-width="2" stroke-dasharray="6,4"/>
<rect x="509.5" y="293.8" width="7" height="7" fill="#1baf7a" stroke="#fcfcfb" stroke-width="2"/>
<rect x="643.1" y="293.5" width="7" height="7" fill="#1baf7a" stroke="#fcfcfb" stroke-width="2"/>
<rect x="736.5" y="294.1" width="7" height="7" fill="#1baf7a" stroke="#fcfcfb" stroke-width="2"/>
<rect x="817.0" y="292.7" width="7" height="7" fill="#1baf7a" stroke="#fcfcfb" stroke-width="2"/>
<polyline points="513.0,286.1 646.6,283.5 740.0,280.4 820.5,281.4" fill="none" stroke="#eda100" stroke-width="2" stroke-dasharray="2,3"/>
<polygon points="513.0,281.6 508.5,289.6 517.5,289.6" fill="#eda100" stroke="#fcfcfb" stroke-width="2"/>
<polygon points="646.6,279.0 642.1,287.0 651.1,287.0" fill="#eda100" stroke="#fcfcfb" stroke-width="2"/>
<polygon points="740.0,275.9 735.5,283.9 744.5,283.9" fill="#eda100" stroke="#fcfcfb" stroke-width="2"/>
<polygon points="820.5,276.9 816.0,284.9 825.0,284.9" fill="#eda100" stroke="#fcfcfb" stroke-width="2"/>
<text x="830.5" y="282.5" font-size="11" fill="#0b0b0b">full architecture</text>
<text x="830.5" y="296.5" font-size="11" fill="#0b0b0b">provenance only</text>
<text x="830.5" y="310.5" font-size="11" fill="#0b0b0b">trace only</text>
<text x="260.0" y="366" font-size="12" fill="#52514e" text-anchor="middle">program size (lines, log scale)</text>
<text x="670.0" y="366" font-size="12" fill="#52514e" text-anchor="middle">program size (lines, log scale)</text>
</svg>
